<?xml version="1.0" encoding="UTF-8" standalone="no"?>
<!-- Created with Inkscape (http://www.inkscape.org/) -->

<svg
   width="512"
   height="512"
   viewBox="0 0 512 512"
   version="1.1"
   id="svg1"
   inkscape:version="1.3.2 (1:1.3.2+202311252150+091e20ef0f)"
   sodipodi:docname="biostack-logo.svg"
   xmlns:inkscape="http://www.inkscape.org/namespaces/inkscape"
   xmlns:sodipodi="http://sodipodi.sourceforge.net/DTD/sodipodi-0.dtd"
   xmlns="http://www.w3.org/2000/svg"
   xmlns:svg="http://www.w3.org/2000/svg">
  <sodipodi:namedview
     id="namedview1"
     pagecolor="#ffffff"
     bordercolor="#111111"
     borderopacity="1"
     inkscape:showpageshadow="0"
     inkscape:pageopacity="0"
     inkscape:pagecheckerboard="1"
     inkscape:deskcolor="#d1d1d1"
     inkscape:document-units="px"
     inkscape:zoom="1.1269514"
     inkscape:cx="285.28292"
     inkscape:cy="250.23261"
     inkscape:window-width="1870"
     inkscape:window-height="1016"
     inkscape:window-x="0"
     inkscape:window-y="0"
     inkscape:window-maximized="1"
     inkscape:current-layer="layer1"
     showguides="false" />
  <defs
     id="defs1" />
  <g
     inkscape:label="Calque 1"
     inkscape:groupmode="layer"
     id="layer1">
    <path
       d="m 259.24301,308.6901 q 0,38.258 -28.63606,59.81776 -28.63605,21.55976 -79.21103,21.55976 H 16.991193 V 104.92926 H 138.23257 q 50.34405,0 76.20886,18.60057 26.09577,18.38921 26.09577,53.05392 0,24.30756 -15.24176,41.00581 -15.24178,16.48687 -46.88001,22.6166 39.49004,3.80466 60.04336,21.55975 20.78422,17.7551 20.78422,46.92419 z M 171.94922,185.03855 q 0,-33.81922 -38.5663,-33.81922 H 85.117298 v 67.42708 H 133.8448 q 38.10442,0 38.10442,-33.60786 z m 18.70581,118.36729 q 0,-18.60057 -12.2396,-28.53498 -12.23961,-10.14575 -35.56414,-10.14575 H 85.117298 v 79.05244 h 59.350532 q 46.1872,0 46.1872,-40.37171 z"
       id="text1"
       style="font-weight:bold;font-size:483.171px;line-height:1.25;font-family:'Liberation Mono';-inkscape-font-specification:'Liberation Mono, Bold';stroke:#000000;stroke-width:3.74591"
       aria-label="B" />
    <path
       id="text2"
       style="font-weight:bold;font-size:483.171px;line-height:1.25;font-family:'Liberation Mono';-inkscape-font-specification:'Liberation Mono, Bold';stroke:#000000;stroke-width:3.74591;stroke-linejoin:round;stroke-dasharray:none;stroke-opacity:1"
       d="m 368.33697,98.504345 c -20.5785,0 -38.82632,2.445295 -54.77716,7.299575 H 423.9737 c -15.62339,-4.86204 -34.16405,-7.299575 -55.63673,-7.299575 z m -78.67964,17.337145 c -2.40042,1.33683 -4.74565,2.73125 -6.99847,4.22288 -1.84078,1.22751 -3.57325,2.5068 -5.25682,3.80933 h 180.5918 c -2.77178,-2.35867 -5.70212,-4.55667 -8.83017,-6.55625 -0.7855,-0.50782 -1.60332,-0.9887 -2.41354,-1.47596 z m -23.02792,18.06979 c -2.26331,2.56984 -4.3178,5.23876 -6.10888,8.03398 h 213.12366 c -1.78549,-2.81934 -3.70673,-5.50323 -5.77856,-8.03398 z m -11.30189,18.07156 c -1.06403,2.59578 -1.95741,5.27346 -2.68004,8.03219 h 67.96147 c 1.89956,-3.06883 4.48229,-5.7466 7.75104,-8.03219 z m 146.32956,0 c 3.25097,2.26082 6.13487,4.94524 8.67066,8.03219 h 72.1016 c -1.00837,-2.773 -2.10953,-5.45341 -3.31062,-8.03219 z m -150.86196,18.06978 c -0.28548,2.61404 -0.43492,5.292 -0.4523,8.03398 h 66.42438 c -0.0963,-0.99877 -0.16139,-2.01497 -0.16139,-3.066 0,-1.73246 0.16362,-3.37166 0.40162,-4.96798 z m 165.84232,0 c 1.19501,2.50728 2.24532,5.1817 3.14169,8.03398 h 36.27977 l 30.74706,-2.85387 c -0.38807,-1.78552 -0.88649,-3.45868 -1.33813,-5.18011 z m -165.7466,18.07157 c 0.32156,2.74847 0.78827,5.42597 1.39631,8.03398 h 74.65212 c -1.47948,-1.219 -2.87166,-2.47479 -4.09698,-3.80399 -1.1766,-1.31623 -2.16864,-2.73312 -3.01221,-4.22999 z m 4.56992,18.07155 c 0.42213,1.03339 0.8582,2.05998 1.33251,3.06779 0.84134,1.69945 1.77127,3.34502 2.74383,4.96441 h 114.98758 c -12.49151,-3.08907 -22.22876,-5.78401 -28.84027,-8.0322 z m 11.37508,18.06979 c 2.47256,2.83719 5.22094,5.50559 8.19959,8.03398 h 162.25206 c -6.88759,-2.78129 -14.67753,-5.45804 -23.33946,-8.03398 z m 22.72013,18.07156 c 4.93426,2.81474 10.49491,5.4833 16.55872,8.0322 h 163.19417 c -3.48868,-2.82871 -7.35248,-5.50544 -11.58339,-8.0322 z m 47.77309,18.06978 c 9.35383,2.51439 20.5308,5.21238 32.90534,8.03398 h 115.13395 c -0.29666,-0.48853 -0.56089,-0.99133 -0.87082,-1.47417 -1.45128,-2.26097 -3.11641,-4.43488 -4.90211,-6.55981 z m 66.55386,18.07156 c 4.70349,2.14147 8.80935,4.49706 12.25717,7.08923 0.41513,0.30533 0.7722,0.63079 1.16735,0.94297 h 75.6881 c -0.71044,-2.74784 -1.58888,-5.42416 -2.6256,-8.0322 z m 22.12519,18.07156 c 1.34149,2.52312 2.21833,5.20454 2.67253,8.0322 h 66.64396 c -0.0278,-2.73613 -0.20133,-5.40939 -0.49361,-8.0322 z m -125.1052,6.13912 -15.93187,1.89308 h 16.52304 c -0.19164,-0.6348 -0.41796,-1.24511 -0.59117,-1.89308 z m -64.72404,11.93066 c 0.77555,2.75218 1.65364,5.42424 2.61246,8.03399 h 71.98148 c -1.96935,-2.50888 -3.70157,-5.18661 -5.19677,-8.03399 z m 192.49238,0 c -0.38488,2.8863 -1.08056,5.56417 -2.08509,8.03399 h 67.04559 c 0.53895,-2.6148 0.96358,-5.28736 1.2443,-8.03399 z m -185.57649,18.07157 c 1.37698,2.77163 2.87567,5.44732 4.49297,8.03219 h 88.78417 c -4.92736,-1.72778 -9.38143,-3.88796 -13.29877,-6.5402 -0.69058,-0.47622 -1.32221,-0.99502 -1.98374,-1.49199 z m 176.50984,0 c -1.5881,1.46543 -3.32125,2.83329 -5.31125,4.02858 -2.51988,1.53757 -5.41688,2.86549 -8.65377,4.00361 h 81.69563 c 1.32792,-2.59399 2.49573,-5.26921 3.49265,-8.03219 z m -164.73688,18.06977 c 2.34715,2.81306 4.86605,5.49304 7.56336,8.03399 H 474.0646 c 2.55951,-2.56001 4.8862,-5.23796 6.98344,-8.03399 z m 20.1358,18.07156 c 1.29319,0.87139 2.60949,1.72401 3.95999,2.55084 3.21994,1.9714 6.58893,3.78856 10.07636,5.48136 h 159.24359 c 4.66155,-2.28129 9.04184,-4.80668 13.12046,-7.59369 0.20858,-0.14284 0.39956,-0.29467 0.60621,-0.43851 z m 42.46935,18.06978 c 14.92149,3.59928 31.56159,5.4065 49.93887,5.4065 19.43475,0 36.77964,-1.8135 52.07275,-5.4065 z" />
    <path
       style="fill:none;stroke:#000000;stroke-width:5.13414;stroke-linecap:butt;stroke-linejoin:miter;stroke-dasharray:none;stroke-opacity:1"
       d="M 15.830182,409.86892 H 496.80145"
       id="path2" />
  </g>
</svg>
