<?xml version="1.0" encoding="UTF-8" standalone="no"?>
<!-- Created with Inkscape (http://www.inkscape.org/) -->

<svg
   width="512"
   height="512"
   viewBox="0 0 512 512"
   version="1.1"
   id="svg1"
   inkscape:version="1.3.2 (1:1.3.2+202311252150+091e20ef0f)"
   sodipodi:docname="biostack-logo.svg"
   xmlns:inkscape="http://www.inkscape.org/namespaces/inkscape"
   xmlns:sodipodi="http://sodipodi.sourceforge.net/DTD/sodipodi-0.dtd"
   xmlns="http://www.w3.org/2000/svg"
   xmlns:svg="http://www.w3.org/2000/svg">
  <sodipodi:namedview
     id="namedview1"
     pagecolor="#ffffff"
     bordercolor="#111111"
     borderopacity="1"
     inkscape:showpageshadow="0"
     inkscape:pageopacity="0"
     inkscape:pagecheckerboard="1"
     inkscape:deskcolor="#d1d1d1"
     inkscape:document-units="px"
     inkscape:zoom="0.796875"
     inkscape:cx="156.86275"
     inkscape:cy="427.29412"
     inkscape:window-width="1679"
     inkscape:window-height="991"
     inkscape:window-x="26"
     inkscape:window-y="23"
     inkscape:window-maximized="0"
     inkscape:current-layer="layer1"
     showguides="false" />
  <defs
     id="defs1" />
  <g
     inkscape:label="Calque 1"
     inkscape:groupmode="layer"
     id="layer1">
    <path
       d="m 263.4977,308.03502 q 0,37.92387 -28.38596,59.29534 -28.38595,21.37145 -78.51923,21.37145 H 23.361637 V 106.05377 H 143.54413 q 49.90436,0 75.54327,18.43811 25.86786,18.22861 25.86786,52.59057 0,24.09527 -15.10864,40.64767 -15.10867,16.34288 -46.47057,22.41908 39.14513,3.77144 59.51895,21.37146 20.6027,17.60002 20.6027,46.51436 z M 176.9663,185.4634 q 0,-33.52384 -38.22946,-33.52384 H 90.892746 v 66.83818 h 48.301934 q 37.77162,0 37.77162,-33.31434 z m 18.54244,117.33351 q 0,-18.43811 -12.13269,-28.28576 -12.13272,-10.05714 -35.25354,-10.05714 H 90.892746 v 78.36202 h 58.832184 q 45.78381,0 45.78381,-40.01912 z"
       id="text1"
       style="font-weight:bold;font-size:483.171px;line-height:1.25;font-family:'Liberation Mono';-inkscape-font-specification:'Liberation Mono, Bold';stroke:#000000;stroke-width:3.7132"
       aria-label="B" />
    <path
       id="text2"
       style="font-weight:bold;font-size:483.171px;line-height:1.25;font-family:'Liberation Mono';-inkscape-font-specification:'Liberation Mono, Bold';stroke:#000000;stroke-width:3.7132;stroke-linejoin:round;stroke-dasharray:none;stroke-opacity:1"
       d="m 371.63887,99.684968 c -20.39878,0 -38.48722,2.423942 -54.29876,7.235822 h 109.44958 c -15.48695,-4.81958 -33.86568,-7.235822 -55.15082,-7.235822 z M 293.6464,116.87069 c -2.37946,1.32515 -4.70421,2.7074 -6.93735,4.186 -1.82471,1.21679 -3.54204,2.48491 -5.21091,3.77607 H 460.5127 c -2.74757,-2.33808 -5.65232,-4.51688 -8.75305,-6.499 -0.77863,-0.50339 -1.58932,-0.98006 -2.39246,-1.46307 z m -22.82681,17.91198 c -2.24355,2.54739 -4.28009,5.19301 -6.05553,7.96381 h 211.26231 c -1.7699,-2.79471 -3.67436,-5.45517 -5.72809,-7.96381 z m -11.20318,17.91372 c -1.05474,2.57312 -1.94031,5.22741 -2.65663,7.96204 h 67.36791 c 1.88297,-3.04202 4.44314,-5.6964 7.68334,-7.96204 z m 145.05156,0 c 3.22258,2.24109 6.08129,4.90206 8.59493,7.96204 h 71.47189 c -0.99956,-2.74878 -2.09111,-5.40578 -3.28171,-7.96204 z m -149.54438,17.91197 c -0.28298,2.59121 -0.43112,5.24578 -0.44835,7.96382 h 65.84426 c -0.0955,-0.99005 -0.15999,-1.99738 -0.15999,-3.03923 0,-1.71732 0.16219,-3.34221 0.39811,-4.92459 z m 164.39391,0 c 1.18457,2.48538 2.22571,5.13645 3.11425,7.96382 h 35.96291 l 30.47853,-2.82895 c -0.38468,-1.76993 -0.87875,-3.42847 -1.32645,-5.13487 z M 255.21848,188.5221 c 0.31875,2.72446 0.78138,5.37858 1.38411,7.96381 h 74.00013 c -1.46655,-1.20835 -2.84657,-2.45318 -4.0612,-3.77077 -1.16632,-1.30473 -2.14969,-2.70925 -2.9859,-4.19304 z m 4.53,17.91372 c 0.41845,1.02436 0.85071,2.04199 1.32088,3.04099 0.83399,1.68462 1.7558,3.31581 2.71986,4.92105 h 113.98332 c -12.38242,-3.06208 -22.03462,-5.73349 -28.5884,-7.96204 z m 11.27574,17.91197 c 2.45097,2.81242 5.17534,5.45751 8.12798,7.96382 h 160.83499 c -6.82743,-2.757 -14.54934,-5.41037 -23.13562,-7.96382 z m 22.5217,17.91373 c 4.89117,2.79015 10.40325,5.43541 16.4141,7.96205 H 471.7289 c -3.45821,-2.804 -7.28826,-5.45736 -11.48222,-7.96205 z m 47.35585,17.91197 c 9.27214,2.49243 20.35149,5.16685 32.61796,7.96381 h 114.1284 c -0.29407,-0.48426 -0.55599,-0.98267 -0.86322,-1.4613 -1.4386,-2.24122 -3.08919,-4.39615 -4.85929,-6.50251 z m 65.9726,17.91372 c 4.66241,2.12277 8.73241,4.45779 12.15012,7.02732 0.4115,0.30266 0.76546,0.62528 1.15715,0.93473 h 75.02707 c -0.70423,-2.72384 -1.575,-5.37678 -2.60267,-7.96205 z m 21.93196,17.91373 c 1.32977,2.50108 2.19896,5.15909 2.64919,7.96205 h 66.06191 c -0.0276,-2.71223 -0.19957,-5.36214 -0.48931,-7.96205 z m -124.01257,6.0855 -15.79273,1.87655 h 16.37873 c -0.18997,-0.62925 -0.41431,-1.23424 -0.586,-1.87655 z m -64.15877,11.82647 c 0.76879,2.72814 1.63921,5.37686 2.58965,7.96382 h 71.35282 c -1.95216,-2.48697 -3.66925,-5.14131 -5.15139,-7.96382 z m 190.81121,0 c -0.38151,2.86109 -1.07112,5.51557 -2.06687,7.96382 h 66.46003 c 0.53424,-2.59196 0.95517,-5.24118 1.23344,-7.96382 z m -183.95571,17.91373 c 1.36494,2.74743 2.85055,5.39975 4.45373,7.96204 h 88.00875 c -4.88432,-1.71269 -9.2995,-3.854 -13.18262,-6.48308 -0.68455,-0.47205 -1.31066,-0.98632 -1.96642,-1.47896 z m 174.96825,0 c -1.57423,1.45263 -3.29224,2.80855 -5.26486,3.9934 -2.49787,1.52414 -5.36957,2.84046 -8.57819,3.96864 h 80.98212 c 1.31632,-2.57133 2.47394,-5.22318 3.46215,-7.96204 z M 259.16062,349.7386 c 2.32666,2.78849 4.82356,5.44506 7.49731,7.96382 H 476.4431 c 2.53716,-2.53765 4.84353,-5.19221 6.92246,-7.96382 z m 19.95994,17.91373 c 1.28189,0.86377 2.5867,1.70895 3.92541,2.52856 3.19182,1.95419 6.53138,3.75547 9.98835,5.43348 h 157.85281 c 4.62084,-2.26136 8.96287,-4.7647 13.00587,-7.52736 0.20676,-0.1416 0.39607,-0.2921 0.60092,-0.43468 z m 42.09843,17.91197 c 14.79118,3.56784 31.28595,5.35928 49.50273,5.35928 19.26501,0 36.45842,-1.79767 51.61796,-5.35928 z" />
    <path
       id="path2"
       style="opacity:1;fill:#060606;stroke-width:4.58672;stroke-linejoin:round;stroke-miterlimit:2"
       d="M 498.82776,411.505 A 243.4758,10.652134 0 0 1 255.35196,422.15714 243.4758,10.652134 0 0 1 11.87616,411.505 243.4758,10.652134 0 0 1 255.35196,400.85287 243.4758,10.652134 0 0 1 498.82776,411.505 Z" />
  </g>
</svg>
